# xmcd CD database file
#
# Track frame offsets:
#	150
#	10320
#	20632
#	35660
#	49342
#	65815
#	77520
#	92315
#	105360
#	120617
#	135975
#	148445
#	159695
#	172047
#	185697
#
# Disc length: 2705 seconds
#
# Revision: 0
# Processed by: cddbd v1.4PL0 Copyright (c) Steve Scherf et al.
# Submitted via: CDex 1.40Release
#
DISCID=cf0a8f0f
DTITLE=John Juenemann - Welcome to the Family
DYEAR=1900
DGENRE=Country
TTITLE0=Our Thirty-Fifth
TTITLE1=I Love You Grandma and Grandpa
TTITLE2=Beautiful Carolyn Marie
TTITLE3=Welcome to the Family
TTITLE4=Dr. Ron
TTITLE5=I Love You Dad
TTITLE6=(I AM) The Greatest
TTITLE7=Gary, We're So Proud
TTITLE8=Our Wedding Prayer
TTITLE9=Big Little Thoughts
TTITLE10=We Love You Barb
TTITLE11=Barb and Paul
TTITLE12=Grandma and Grandpa Sure Love You
TTITLE13=It Will Be Morning
TTITLE14=Hands In Heaven
EXTD=ID3G: 2
EXTT0=
EXTT1=
EXTT2=
EXTT3=
EXTT4=
EXTT5=
EXTT6=
EXTT7=
EXTT8=
EXTT9=
EXTT10=
EXTT11=
EXTT12=
EXTT13=
EXTT14=
PLAYORDER=
